<svg version="1.2" xmlns="http://www.w3.org/2000/svg" viewBox="0 0 20 20" width="20" height="20">
	<title>delete_button-svg</title>
	<style>
		.s0 { fill: none;stroke: #2b4ea2;stroke-miterlimit:10;stroke-width: .9 } 
		.s1 { fill: #2b4ea2;stroke: #2b4ea2;stroke-width: .2 } 
		.s2 { fill: none;stroke: #2b4ea2;stroke-linecap: round;stroke-linejoin: round;stroke-width: .9 } 
	</style>
	<g id="SVGRepo_bgCarrier">
	</g>
	<g id="SVGRepo_tracerCarrier">
	</g>
	<g id="SVGRepo_iconCarrier">
		<g id="Group_14">
			<path id="Path_40" fill-rule="evenodd" class="s0" d="m17.2 7.7h-14.3q-0.2 0-0.4 0-0.2-0.1-0.3-0.3-0.2-0.1-0.3-0.3-0.1-0.2-0.1-0.4v-2.2q0-0.2 0.1-0.4 0.1-0.2 0.3-0.3 0.1-0.2 0.3-0.3 0.2 0 0.4 0h14.3q0.2 0 0.4 0 0.2 0.1 0.3 0.3 0.2 0.1 0.2 0.3 0.1 0.2 0.1 0.4v2.2q0 0.2-0.1 0.4 0 0.2-0.2 0.3-0.1 0.2-0.3 0.3-0.2 0-0.4 0z"/>
			<path id="Path_41" fill-rule="evenodd" class="s1" d="m17.1 18.1c0 1.2-4.4 1.8-7.1 1.8-2.8 0-7-0.6-7-1.8v-10.7h14.1zm-13.2-9.7v9.6c0.1 0.1 0.7 0.4 2.2 0.7q0.5 0.1 1 0.2 0.4 0 0.9 0.1 0.5 0 1 0 0.5 0 1 0 0.5 0 0.9 0 0.5 0 1 0 0.5-0.1 1-0.2 0.5 0 1-0.1c1.6-0.3 2.1-0.6 2.3-0.7v-9.6z"/>
			<path id="Line_17" class="s2" d="m7.3 12v2.8"/>
			<path id="Line_18" class="s2" d="m10.1 11.2v4.4"/>
			<path id="Line_19" class="s2" d="m12.8 12v2.8"/>
			<path id="Path_42" fill-rule="evenodd" class="s0" d="m6.4 3.3c0 0-0.4-2.8 3.4-2.8 3.9 0 3.9 2.8 3.9 2.8"/>
		</g>
	</g>
</svg>